<?xml version="1.0" standalone="no"?><!DOCTYPE svg PUBLIC "-//W3C//DTD SVG 1.1//EN" "http://www.w3.org/Graphics/SVG/1.1/DTD/svg11.dtd"><svg t="1529905588706" class="icon" style="" viewBox="0 0 1024 1024" version="1.1" xmlns="http://www.w3.org/2000/svg" p-id="1929" xmlns:xlink="http://www.w3.org/1999/xlink" width="200" height="200"><defs><style type="text/css"></style></defs><path d="M516.166 1018.057c-25.798 0-51.696-1.959-77.593-5.883-67.976-10.3-131.904-33.524-190.007-69.027-56.106-34.281-104.423-78.502-143.611-131.432-39.186-52.93-67.278-111.919-83.496-175.327-16.795-65.667-20.052-133.192-9.68-200.7s33.755-130.996 69.503-188.701c34.519-55.721 79.044-103.706 132.341-142.624 53.297-38.917 112.694-66.816 176.54-82.922 66.122-16.68 134.116-19.915 202.088-9.614 88.706 13.441 172.37 49.889 241.946 105.404 67.476 53.839 120.433 124.373 153.145 203.979 7.317 17.806-1.285 38.131-19.215 45.397-17.933 7.267-38.397-1.278-45.713-19.082C864.24 205.958 733.676 103.706 581.673 80.674 342.19 44.389 117.64 208.359 81.102 446.193 44.565 684.026 209.669 907.041 449.149 943.328 688.63 979.621 913.185 815.642 949.722 577.81c2.923-19.012 20.808-32.065 39.951-29.172 19.143 2.901 32.294 20.664 29.374 39.676-10.372 67.508-33.756 130.996-69.505 188.701C915.024 832.735 870.497 880.72 817.2 919.637c-53.296 38.917-112.694 66.816-176.54 82.922C599.73 1012.884 558.082 1018.057 516.166 1018.057z" p-id="1930"></path></svg>